<svg xmlns="http://www.w3.org/2000/svg" width="36" height="36" viewBox="0 0 36 36" fill="none">
  <path d="M1 18C1 8.61116 8.61116 1 18 1C27.3888 1 35 8.61116 35 18C35 27.3888 27.3888 35 18 35C8.61116 35 1 27.3888 1 18Z" fill="white"/>
  <path d="M29 31.5C29 32.0523 29.4477 32.5 30 32.5C30.5523 32.5 31 32.0523 31 31.5H29ZM24 22.5V21.5V22.5ZM12 22.5V21.5V22.5ZM6 28.5H5H6ZM5 31.5V32.5H7V31.5H5ZM31 31.5V28.5H29V31.5H31ZM31 28.5C31 26.6435 30.2625 24.863 28.9497 23.5503L27.5355 24.9645C28.4732 25.9021 29 27.1739 29 28.5H31ZM28.9497 23.5503C27.637 22.2375 25.8565 21.5 24 21.5V23.5C25.3261 23.5 26.5979 24.0268 27.5355 24.9645L28.9497 23.5503ZM24 21.5H12V23.5H24V21.5ZM12 21.5C10.1435 21.5 8.36301 22.2375 7.05025 23.5503L8.46447 24.9645C9.40215 24.0268 10.6739 23.5 12 23.5V21.5ZM7.05025 23.5503C5.7375 24.863 5 26.6435 5 28.5H7C7 27.1739 7.52678 25.9021 8.46447 24.9645L7.05025 23.5503ZM5 28.5V31.5H7V28.5H5Z" fill="black"/>
  <path d="M18 16.5C21.3137 16.5 24 13.8137 24 10.5C24 7.18629 21.3137 4.5 18 4.5C14.6863 4.5 12 7.18629 12 10.5C12 13.8137 14.6863 16.5 18 16.5Z" stroke="black" stroke-width="2" stroke-linecap="round" stroke-linejoin="round"/>
</svg>